<?xml version="1.0" standalone="no"?>
<!DOCTYPE svg PUBLIC "-//W3C//DTD SVG 20010904//EN"
 "http://www.w3.org/TR/2001/REC-SVG-20010904/DTD/svg10.dtd">
<svg version="1.0" xmlns="http://www.w3.org/2000/svg"
 width="1024.000000pt" height="1024.000000pt" viewBox="0 0 1024.000000 1024.000000"
 preserveAspectRatio="xMidYMid meet">

<g transform="translate(0.000000,1024.000000) scale(0.100000,-0.100000)"
fill="#000000" stroke="none">
<path d="M3355 5805 c-254 -56 -454 -237 -531 -479 -47 -151 -42 -302 17 -456
73 -191 232 -340 434 -407 70 -23 97 -27 215 -27 116 -1 145 2 205 22 121 41
204 91 285 172 87 88 140 173 177 285 22 68 26 98 27 200 0 197 -55 340 -186
480 -168 180 -414 260 -643 210z m-221 -353 c23 -64 64 -110 189 -215 183
-154 285 -271 327 -375 15 -38 9 -112 -14 -167 l-16 -37 -140 136 c-78 74
-180 164 -227 198 -184 134 -185 136 -191 310 -4 124 7 231 30 286 11 26 12
24 19 -33 4 -33 14 -80 23 -103z m407 28 c79 -72 185 -162 234 -199 113 -87
134 -110 146 -158 12 -51 11 -272 -1 -358 -12 -80 -30 -110 -30 -50 0 45 -21
129 -40 165 -27 52 -69 94 -202 207 -130 109 -228 214 -277 293 -14 24 -21 52
-21 86 0 51 25 144 39 144 4 0 73 -59 152 -130z"/>
<path d="M5586 5517 c-47 -27 -76 -77 -76 -134 0 -40 -1 -42 -32 -45 -31 -3
-33 -6 -36 -45 -3 -40 -2 -42 29 -45 l32 -3 1 -190 1 -190 53 -3 52 -3 0 195
0 195 63 3 62 3 0 40 0 40 -64 3 -63 3 5 35 c9 51 23 64 73 64 38 0 45 4 59
30 21 41 19 47 -16 59 -49 17 -100 13 -143 -12z"/>
<path d="M5320 5195 l0 -335 50 0 50 0 0 335 0 335 -50 0 -50 0 0 -335z"/>
<path d="M5950 5195 l0 -335 49 0 50 0 3 154 3 155 29 30 c57 59 133 68 170
18 18 -25 21 -45 24 -192 l4 -165 50 0 50 0 -4 188 c-4 205 -13 245 -63 278
-35 23 -130 22 -176 -1 -18 -10 -46 -31 -61 -48 l-28 -29 0 141 0 141 -50 0
-50 0 0 -335z"/>
<path d="M6945 5518 c-2 -7 -3 -157 -2 -333 l2 -320 48 -3 c47 -3 47 -3 47 29
l0 32 23 -20 c38 -35 84 -53 136 -53 62 0 89 10 135 51 126 110 107 347 -33
419 -74 37 -177 24 -225 -29 -11 -12 -23 -21 -28 -21 -4 0 -8 59 -8 130 l0
130 -45 0 c-28 0 -47 -5 -50 -12z m304 -286 c42 -31 65 -80 65 -137 -2 -97
-57 -155 -148 -155 -43 0 -53 4 -87 39 -37 37 -39 42 -39 102 0 77 21 124 70
157 41 28 97 25 139 -6z"/>
<path d="M5770 5501 c-12 -23 -13 -61 -2 -79 11 -16 73 -26 90 -14 14 9 19 82
8 101 -4 6 -25 11 -46 11 -29 0 -42 -5 -50 -19z"/>
<path d="M4991 5339 c-105 -20 -178 -104 -188 -218 -10 -111 39 -204 130 -247
136 -63 291 3 338 143 6 21 9 63 6 99 -12 154 -136 251 -286 223z m121 -104
c24 -9 55 -62 63 -106 10 -52 -11 -117 -50 -156 -74 -74 -195 -23 -220 94 -9
43 10 108 43 144 40 45 94 53 164 24z"/>
<path d="M4490 5321 c-79 -41 -105 -139 -54 -200 20 -24 47 -37 123 -61 112
-34 140 -56 123 -95 -27 -60 -146 -56 -235 7 -15 11 -21 9 -37 -12 -11 -14
-20 -31 -20 -38 0 -7 26 -25 58 -40 49 -23 70 -27 149 -27 77 0 96 3 119 21
49 36 69 72 68 120 -1 70 -49 107 -177 140 -100 25 -133 68 -86 115 18 18 30
21 78 16 31 -2 73 -13 94 -23 l39 -18 19 24 c10 14 19 29 19 33 0 4 -24 19
-52 32 -68 32 -175 35 -228 6z"/>
<path d="M5770 5100 l0 -240 50 0 50 0 0 240 0 240 -50 0 -50 0 0 -240z"/>
<path d="M6447 5333 c-11 -11 -8 -335 4 -376 5 -21 23 -52 38 -69 24 -27 36
-32 88 -36 76 -5 125 10 169 54 30 30 35 33 40 17 15 -49 26 -63 50 -69 15 -4
34 -2 43 3 22 14 27 91 7 106 -13 10 -16 43 -18 192 l-3 180 -47 3 -48 3 0
-159 0 -159 -33 -38 c-28 -32 -40 -38 -82 -42 -96 -9 -116 33 -114 242 0 72 0
136 0 143 -1 13 -82 18 -94 5z"/>
</g>
</svg>
